<svg width="217" height="57" viewBox="0 0 217 57" fill="none" xmlns="http://www.w3.org/2000/svg">
<rect width="216.82" height="57" rx="8" fill="black"/>
<path d="M27.2722 44.0407V13.324C27.2722 12.258 27.8832 11.3184 28.7818 10.8848L46.483 28.6824L28.7818 46.48C27.8832 46.0282 27.2722 45.1067 27.2722 44.0407ZM52.0899 34.3198L32.7533 45.5585L48.0105 30.2182L52.0899 34.3198V34.3198ZM58.1101 26.5322C58.7212 27.0201 59.1704 27.7789 59.1704 28.6824C59.1704 29.5858 58.7751 30.3085 58.1461 30.8145L54.0308 33.1995L49.5381 28.6824L54.0308 24.1652L58.1101 26.5322ZM32.7533 11.8063L52.0899 23.045L48.0105 27.1465L32.7533 11.8063V11.8063Z" fill="white"/>
<path fill-rule="evenodd" clip-rule="evenodd" d="M122.994 20.5659H124.364V11.3338H122.994V20.5659ZM135.34 14.6592L133.768 18.662H133.721L132.091 14.6592H130.614L133.06 20.2534L131.666 23.3655H133.095L136.864 14.6592H135.34ZM127.566 19.5171C127.118 19.5171 126.492 19.2911 126.492 18.7328C126.492 18.0209 127.272 17.7469 127.945 17.7469C128.547 17.7469 128.831 17.8784 129.197 18.0556C129.09 18.9115 128.358 19.5171 127.566 19.5171V19.5171ZM127.732 14.4569C126.74 14.4569 125.712 14.8971 125.287 15.8704L126.504 16.3815C126.764 15.8704 127.248 15.7043 127.756 15.7043C128.465 15.7043 129.185 16.1319 129.197 16.8918V16.9871C128.949 16.8445 128.417 16.6311 127.768 16.6311C126.456 16.6311 125.121 17.3556 125.121 18.7093C125.121 19.9448 126.197 20.7409 127.401 20.7409C128.322 20.7409 128.831 20.3251 129.149 19.8377H129.197V20.5504H130.521V17.0107C130.521 15.3719 129.303 14.4569 127.732 14.4569V14.4569ZM119.262 15.7832H117.312V12.6187H119.262C120.286 12.6187 120.868 13.471 120.868 14.2006C120.868 14.9162 120.286 15.7832 119.262 15.7832V15.7832ZM119.227 11.3329H115.943V20.5658H117.312V17.0682H119.227C120.746 17.0682 122.239 15.9619 122.239 14.2006C122.239 12.4392 120.746 11.3329 119.227 11.3329V11.3329ZM101.319 19.5186C100.372 19.5186 99.5793 18.7217 99.5793 17.6273C99.5793 16.5202 100.372 15.7116 101.319 15.7116C102.253 15.7116 102.987 16.5202 102.987 17.6273C102.987 18.7217 102.253 19.5186 101.319 19.5186V19.5186ZM102.892 15.1764H102.845C102.537 14.8079 101.945 14.4741 101.2 14.4741C99.6379 14.4741 98.2056 15.8544 98.2056 17.6276C98.2056 19.3882 99.6379 20.7566 101.2 20.7566C101.945 20.7566 102.537 20.4235 102.845 20.0425H102.892V20.4944C102.892 21.6967 102.253 22.3385 101.224 22.3385C100.383 22.3385 99.8627 21.7322 99.6497 21.2204L98.4546 21.7204C98.7976 22.5527 99.7084 23.5762 101.224 23.5762C102.833 23.5762 104.194 22.6243 104.194 20.3039V14.6647H102.892V15.1764ZM105.141 20.5659H106.513V11.3338H105.141V20.5659ZM108.536 17.5203C108.501 16.3062 109.471 15.6881 110.169 15.6881C110.714 15.6881 111.176 15.9621 111.33 16.3542L108.536 17.5203ZM112.797 16.4733C112.536 15.7717 111.743 14.4741 110.122 14.4741C108.513 14.4741 107.176 15.7473 107.176 17.6157C107.176 19.3763 108.501 20.7566 110.276 20.7566C111.707 20.7566 112.536 19.8763 112.88 19.3645L111.815 18.6504C111.459 19.174 110.974 19.5189 110.276 19.5189C109.578 19.5189 109.081 19.1976 108.762 18.5669L112.939 16.83L112.797 16.4733ZM79.5174 15.4384V16.7707H82.6883C82.5943 17.5203 82.3453 18.0675 81.967 18.4479C81.505 18.9124 80.783 19.4242 79.5174 19.4242C77.5644 19.4242 76.038 17.8415 76.038 15.8786C76.038 13.9156 77.5644 12.3323 79.5174 12.3323C80.5707 12.3323 81.3397 12.7488 81.9075 13.2849L82.8425 12.3448C82.0493 11.5834 80.9967 11 79.5174 11C76.8423 11 74.594 13.1897 74.594 15.8786C74.594 18.5668 76.8423 20.7564 79.5174 20.7564C80.9607 20.7564 82.0493 20.2801 82.9013 19.388C83.7768 18.5077 84.0493 17.2699 84.0493 16.2707C84.0493 15.962 84.0258 15.6762 83.9781 15.4384H79.5174ZM87.6546 19.5186C86.7086 19.5186 85.8918 18.7335 85.8918 17.6154C85.8918 16.4848 86.7086 15.7116 87.6546 15.7116C88.6014 15.7116 89.4182 16.4848 89.4182 17.6154C89.4182 18.7335 88.6014 19.5186 87.6546 19.5186V19.5186ZM87.6543 14.4741C85.9268 14.4741 84.5187 15.7953 84.5187 17.6157C84.5187 19.4243 85.9268 20.7566 87.6543 20.7566C89.3826 20.7566 90.7907 19.4243 90.7907 17.6157C90.7907 15.7953 89.3826 14.4741 87.6543 14.4741V14.4741ZM94.4955 19.5186C93.5487 19.5186 92.7319 18.7335 92.7319 17.6154C92.7319 16.4848 93.5487 15.7116 94.4955 15.7116C95.4423 15.7116 96.2583 16.4848 96.2583 17.6154C96.2583 18.7335 95.4423 19.5186 94.4955 19.5186V19.5186ZM94.4956 14.4741C92.768 14.4741 91.3599 15.7953 91.3599 17.6157C91.3599 19.4243 92.768 20.7566 94.4956 20.7566C96.2231 20.7566 97.6312 19.4243 97.6312 17.6157C97.6312 15.7953 96.2231 14.4741 94.4956 14.4741V14.4741Z" fill="white"/>
<path d="M86.4689 33.4202C86.0438 30.3503 83.6823 28.569 80.6191 28.569C77.0094 28.569 74.2903 31.2004 74.2903 35.667C74.2903 40.1269 76.9757 42.765 80.6191 42.765C83.905 42.765 86.0843 40.6397 86.4689 38.0015L83.9455 37.988C83.6284 39.6074 82.3059 40.5182 80.6529 40.5182C78.4128 40.5182 76.807 38.8382 76.807 35.667C76.807 32.5498 78.3993 30.8158 80.6596 30.8158C82.3396 30.8158 83.6553 31.7672 83.9455 33.4202H86.4689Z" fill="white"/>
<path d="M92.9839 42.7785C96.0201 42.7785 97.9498 40.6397 97.9498 37.4348C97.9498 34.2231 96.0201 32.0775 92.9839 32.0775C89.9477 32.0775 88.018 34.2231 88.018 37.4348C88.018 40.6397 89.9477 42.7785 92.9839 42.7785ZM92.9974 40.8219C91.3173 40.8219 90.4942 39.324 90.4942 37.428C90.4942 35.5321 91.3173 34.014 92.9974 34.014C94.6504 34.014 95.4736 35.5321 95.4736 37.428C95.4736 39.324 94.6504 40.8219 92.9974 40.8219Z" fill="white"/>
<path d="M99.8329 42.5761H102.275V36.2743C102.275 34.9991 103.125 34.1354 104.178 34.1354C105.21 34.1354 105.919 34.8304 105.919 35.8964V42.5761H108.314V36.1123C108.314 34.9451 109.009 34.1354 110.19 34.1354C111.175 34.1354 111.958 34.7157 111.958 35.9976V42.5761H114.407V35.6198C114.407 33.3055 113.071 32.0775 111.168 32.0775C109.663 32.0775 108.516 32.8197 108.058 33.9735H107.95C107.552 32.7995 106.546 32.0775 105.15 32.0775C103.76 32.0775 102.721 32.7927 102.289 33.9735H102.167V32.2125H99.8329V42.5761Z" fill="white"/>
<path d="M116.695 42.5761H119.137V32.2125H116.695V42.5761ZM117.923 30.7416C118.699 30.7416 119.333 30.1478 119.333 29.4192C119.333 28.6837 118.699 28.09 117.923 28.09C117.14 28.09 116.506 28.6837 116.506 29.4192C116.506 30.1478 117.14 30.7416 117.923 30.7416Z" fill="white"/>
<path d="M123.901 36.5037C123.901 35.0058 124.805 34.1422 126.094 34.1422C127.356 34.1422 128.111 34.9721 128.111 36.3552V42.5761H130.554V35.9774C130.561 33.4944 129.144 32.0775 127.005 32.0775C125.453 32.0775 124.387 32.8197 123.915 33.9735H123.793V32.2125H121.459V42.5761H123.901V36.5037Z" fill="white"/>
<path d="M137.354 46.6784C140.154 46.6784 142.219 45.3964 142.219 42.7448V32.2125H139.81V33.9263H139.675C139.304 33.1773 138.528 32.0775 136.699 32.0775C134.304 32.0775 132.422 33.9532 132.422 37.3606C132.422 40.7409 134.304 42.4277 136.693 42.4277C138.467 42.4277 139.297 41.4763 139.675 40.7139H139.796V42.6773C139.796 44.2022 138.784 44.8297 137.394 44.8297C135.924 44.8297 135.276 44.1347 134.979 43.5275L132.779 44.0605C133.225 45.5111 134.716 46.6784 137.354 46.6784ZM137.374 40.5115C135.762 40.5115 134.911 39.2565 134.911 37.3471C134.911 35.4646 135.748 34.0814 137.374 34.0814C138.946 34.0814 139.81 35.3836 139.81 37.3471C139.81 39.324 138.933 40.5115 137.374 40.5115Z" fill="white"/>
<path d="M156.672 32.5566H159.081C159.034 30.2221 157.043 28.569 154.102 28.569C151.2 28.569 149.021 30.2018 149.028 32.6443C149.028 34.628 150.438 35.7682 152.712 36.3552L154.284 36.7601C155.775 37.1379 156.76 37.6035 156.767 38.6763C156.76 39.857 155.64 40.6464 154.007 40.6464C152.442 40.6464 151.227 39.9447 151.126 38.4941H148.663C148.765 41.2402 150.809 42.7853 154.027 42.7853C157.34 42.7853 159.263 41.1322 159.27 38.6965C159.263 36.3013 157.286 35.2082 155.208 34.7157L153.913 34.3918C152.779 34.1219 151.551 33.6429 151.565 32.4891C151.571 31.4501 152.503 30.6876 154.068 30.6876C155.559 30.6876 156.544 31.3826 156.672 32.5566Z" fill="white"/>
<path d="M165.724 42.7785C168.76 42.7785 170.69 40.6397 170.69 37.4348C170.69 34.2231 168.76 32.0775 165.724 32.0775C162.688 32.0775 160.758 34.2231 160.758 37.4348C160.758 40.6397 162.688 42.7785 165.724 42.7785ZM165.738 40.8219C164.058 40.8219 163.235 39.324 163.235 37.428C163.235 35.5321 164.058 34.014 165.738 34.014C167.391 34.014 168.214 35.5321 168.214 37.428C168.214 39.324 167.391 40.8219 165.738 40.8219Z" fill="white"/>
<path d="M177.094 42.7785C180.13 42.7785 182.06 40.6397 182.06 37.4348C182.06 34.2231 180.13 32.0775 177.094 32.0775C174.058 32.0775 172.128 34.2231 172.128 37.4348C172.128 40.6397 174.058 42.7785 177.094 42.7785ZM177.107 40.8219C175.427 40.8219 174.604 39.324 174.604 37.428C174.604 35.5321 175.427 34.014 177.107 34.014C178.76 34.014 179.583 35.5321 179.583 37.428C179.583 39.324 178.76 40.8219 177.107 40.8219Z" fill="white"/>
<path d="M186.385 36.5037C186.385 35.0058 187.289 34.1422 188.578 34.1422C189.84 34.1422 190.595 34.9721 190.595 36.3552V42.5761H193.038V35.9774C193.045 33.4944 191.628 32.0775 189.489 32.0775C187.937 32.0775 186.871 32.8197 186.399 33.9735H186.277V32.2125H183.943V42.5761H186.385V36.5037Z" fill="white"/>
</svg>
