<svg width="217" height="58" viewBox="0 0 217 58" fill="none" xmlns="http://www.w3.org/2000/svg">
<rect x="0.176514" y="0.117676" width="216.824" height="57" rx="8" fill="black"/>
<path d="M54.9215 29.5472C54.8806 25.0041 58.6413 22.7939 58.8133 22.691C56.6834 19.5858 53.3822 19.1615 52.2222 19.1276C49.4496 18.8359 46.7601 20.7867 45.3477 20.7867C43.9071 20.7867 41.7322 19.1558 39.3881 19.2038C36.3716 19.2503 33.5496 20.9967 32.0019 23.7087C28.8079 29.2385 31.19 37.3646 34.2502 41.8344C35.781 44.0234 37.5697 46.4676 39.911 46.3816C42.2016 46.2872 43.0572 44.9213 45.8213 44.9213C48.5601 44.9213 49.3636 46.3816 51.7514 46.3266C54.2097 46.2872 55.7574 44.1277 57.2346 41.9189C59.0036 39.4099 59.714 36.9389 59.7422 36.8121C59.6844 36.7923 54.968 34.9923 54.9215 29.5472Z" fill="white"/>
<path d="M50.411 16.1873C51.6429 14.6466 52.4858 12.5506 52.2519 10.4236C50.4688 10.5025 48.2388 11.657 46.9547 13.1638C45.8186 14.4916 44.8037 16.668 45.0659 18.7147C47.0689 18.8641 49.1254 17.704 50.411 16.1873Z" fill="white"/>
<path fill-rule="evenodd" clip-rule="evenodd" d="M104.748 20.1076C105.259 19.6478 105.513 19.0521 105.513 18.3199C105.513 17.7248 105.339 17.2261 104.99 16.8277C104.64 16.428 104.096 16.0794 103.356 15.7812C102.75 15.5425 102.333 15.3213 102.104 15.1169C101.84 14.8957 101.708 14.6144 101.708 14.2741C101.708 13.9669 101.824 13.7076 102.053 13.4948C102.325 13.2567 102.704 13.1371 103.189 13.1371C103.803 13.1371 104.351 13.269 104.836 13.5329L105.181 12.4088C104.662 12.1365 104.011 12 103.228 12C102.349 12 101.647 12.2257 101.12 12.6778C100.592 13.1293 100.328 13.7095 100.328 14.4171C100.328 15.4998 101.081 16.3232 102.588 16.8853C103.142 17.0903 103.538 17.3122 103.776 17.5508C104.014 17.7895 104.133 18.0838 104.133 18.4331C104.133 18.825 103.989 19.1394 103.7 19.3735C103.409 19.6077 103.005 19.7254 102.486 19.7254C101.762 19.7254 101.098 19.5417 100.492 19.1756L100.173 20.325C100.735 20.6826 101.477 20.8612 102.404 20.8612C103.407 20.8612 104.188 20.6102 104.748 20.1076ZM83.2668 20.7337H81.7979L80.9933 18.2053H78.1965L77.4301 20.7337H76L78.7709 12.1261H80.4823L83.2668 20.7337ZM80.7505 17.1446L80.0229 14.897C79.9459 14.6674 79.8017 14.1266 79.5889 13.2754H79.563C79.4783 13.6415 79.3418 14.1823 79.1542 14.897L78.4395 17.1446H80.7505ZM89.5368 20.0565C90.1072 19.4439 90.3925 18.6096 90.3925 17.554C90.3925 16.609 90.148 15.8471 89.6577 15.2675C89.1687 14.6887 88.5575 14.3995 87.8253 14.3995C86.8888 14.3995 86.1909 14.7695 85.731 15.5107H85.7051L85.6282 14.527H84.4154C84.449 15.2255 84.4665 15.9066 84.4665 16.5702V23.2626H85.8455V19.9931H85.8714C86.229 20.5804 86.8163 20.874 87.6339 20.874C88.3913 20.874 89.0258 20.6017 89.5368 20.0565ZM88.9877 17.6045C88.9877 17.0004 88.8518 16.5024 88.5789 16.1104C88.2807 15.7016 87.8803 15.4973 87.3784 15.4973C87.0382 15.4973 86.729 15.6111 86.4529 15.8355C86.176 16.0619 85.9949 16.3575 85.9102 16.7236C85.8675 16.8943 85.8462 17.034 85.8462 17.144V18.1789C85.8462 18.6303 85.9846 19.0113 86.2614 19.3224C86.5382 19.6335 86.8979 19.7888 87.3403 19.7888C87.8596 19.7888 88.2639 19.5883 88.553 19.1885C88.8428 18.7882 88.9877 18.2604 88.9877 17.6045ZM96.675 20.0565C97.2461 19.4439 97.5314 18.6096 97.5314 17.554C97.5314 16.609 97.2862 15.8471 96.7979 15.2675C96.3076 14.6887 95.6964 14.3995 94.9649 14.3995C94.0277 14.3995 93.3298 14.7695 92.8705 15.5107H92.8447L92.7677 14.527H91.5549C91.5886 15.2255 91.606 15.9066 91.606 16.5702V23.2626H92.985V19.9931H93.0109C93.3679 20.5804 93.9552 20.874 94.7728 20.874C95.5302 20.874 96.1647 20.6017 96.675 20.0565ZM96.1266 17.6045C96.1266 17.0004 95.9902 16.5024 95.7172 16.1104C95.4191 15.7016 95.02 15.4973 94.5174 15.4973C94.1765 15.4973 93.868 15.6111 93.5912 15.8355C93.3144 16.0619 93.1339 16.3575 93.0492 16.7236C93.0071 16.8943 92.9851 17.034 92.9851 17.144V18.1789C92.9851 18.6303 93.1236 19.0113 93.3991 19.3224C93.6759 19.6329 94.0355 19.7888 94.4793 19.7888C94.9986 19.7888 95.4029 19.5883 95.692 19.1885C95.9818 18.7882 96.1266 18.2604 96.1266 17.6045ZM110.072 15.5619H108.552V18.5753C108.552 19.3418 108.82 19.7247 109.357 19.7247C109.603 19.7247 109.808 19.7033 109.969 19.6606L110.007 20.7078C109.736 20.8094 109.378 20.8605 108.935 20.8605C108.39 20.8605 107.965 20.6942 107.658 20.3624C107.352 20.03 107.198 19.4724 107.198 18.6891V15.5606H106.292V14.5257H107.198V13.3893L108.552 12.9805V14.5257H110.072V15.5619ZM116.113 19.9291C116.657 19.3166 116.93 18.5333 116.93 17.5793C116.93 16.6511 116.666 15.8937 116.137 15.3071C115.584 14.7023 114.851 14.4002 113.941 14.4002C112.996 14.4002 112.244 14.7068 111.687 15.32C111.129 15.9325 110.851 16.7203 110.851 17.6821C110.851 18.6012 111.121 19.3638 111.662 19.9679C112.203 20.572 112.928 20.8741 113.839 20.8741C114.784 20.8741 115.542 20.5597 116.113 19.9291ZM115.499 17.624C115.499 17.0516 115.377 16.5607 115.129 16.1513C114.84 15.6558 114.427 15.4087 113.891 15.4087C113.337 15.4087 112.916 15.6565 112.627 16.1513C112.379 16.5613 112.257 17.06 112.257 17.6499C112.257 18.2223 112.379 18.7132 112.627 19.122C112.925 19.6175 113.341 19.8645 113.879 19.8645C114.405 19.8645 114.819 19.6123 115.117 19.1091C115.371 18.6919 115.499 18.1958 115.499 17.624ZM120.978 15.7016C121.13 15.7016 121.276 15.7145 121.412 15.7397V14.4248C121.31 14.4086 121.195 14.3996 121.068 14.3996C120.71 14.3996 120.378 14.5102 120.071 14.732C119.757 14.9785 119.527 15.307 119.381 15.7152H119.343L119.293 14.5276H118.092C118.126 15.1149 118.144 15.7663 118.144 16.4816L118.131 20.7337H119.509V17.4771C119.509 16.9835 119.624 16.5748 119.854 16.2514C120.118 15.8846 120.493 15.7016 120.978 15.7016ZM127.58 17.3368C127.58 17.5839 127.564 17.7922 127.529 17.9623H123.392C123.409 18.5754 123.608 19.0444 123.993 19.3678C124.341 19.6569 124.792 19.8018 125.346 19.8018C125.958 19.8018 126.517 19.7041 127.02 19.5081L127.236 20.4654C126.648 20.7215 125.955 20.8489 125.155 20.8489C124.192 20.8489 123.437 20.5656 122.887 19.9997C122.339 19.4337 122.064 18.6738 122.064 17.7204C122.064 16.7845 122.319 16.0051 122.831 15.3835C123.366 14.7199 124.09 14.3881 125.001 14.3881C125.895 14.3881 126.573 14.7199 127.033 15.3835C127.397 15.9106 127.58 16.5626 127.58 17.3368ZM125.997 15.919C126.184 16.2172 126.274 16.5704 126.265 16.9791V16.9785H123.393C123.435 16.562 123.571 16.2043 123.801 15.9061C124.081 15.531 124.447 15.344 124.898 15.344C125.392 15.344 125.758 15.5355 125.997 15.919Z" fill="white"/>
<path d="M88.1786 33.3303C87.7536 30.2603 85.392 28.479 82.3288 28.479C78.7191 28.479 76 31.1104 76 35.5771C76 40.0369 78.6854 42.6751 82.3288 42.6751C85.6147 42.6751 87.794 40.5497 88.1786 37.9116L85.6552 37.8981C85.3381 39.5174 84.0156 40.4283 82.3626 40.4283C80.1225 40.4283 78.5167 38.7482 78.5167 35.5771C78.5167 32.4599 80.109 30.7259 82.3693 30.7259C84.0494 30.7259 85.3651 31.6772 85.6552 33.3303H88.1786Z" fill="white"/>
<path d="M94.6936 42.6886C97.7298 42.6886 99.6595 40.5497 99.6595 37.3448C99.6595 34.1332 97.7298 31.9876 94.6936 31.9876C91.6574 31.9876 89.7277 34.1332 89.7277 37.3448C89.7277 40.5497 91.6574 42.6886 94.6936 42.6886ZM94.7071 40.7319C93.0271 40.7319 92.2039 39.234 92.2039 37.3381C92.2039 35.4421 93.0271 33.924 94.7071 33.924C96.3602 33.924 97.1833 35.4421 97.1833 37.3381C97.1833 39.234 96.3602 40.7319 94.7071 40.7319Z" fill="white"/>
<path d="M101.543 42.4862H103.985V36.1843C103.985 34.9091 104.835 34.0455 105.888 34.0455C106.92 34.0455 107.629 34.7404 107.629 35.8065V42.4862H110.024V36.0224C110.024 34.8551 110.719 34.0455 111.899 34.0455C112.885 34.0455 113.667 34.6257 113.667 35.9077V42.4862H116.116V35.5298C116.116 33.2156 114.781 31.9876 112.878 31.9876C111.373 31.9876 110.226 32.7298 109.767 33.8835H109.659C109.261 32.7095 108.256 31.9876 106.859 31.9876C105.469 31.9876 104.43 32.7028 103.999 33.8835H103.877V32.1225H101.543V42.4862Z" fill="white"/>
<path d="M118.404 42.4862H120.847V32.1225H118.404V42.4862ZM119.632 30.6516C120.408 30.6516 121.042 30.0579 121.042 29.3292C121.042 28.5938 120.408 28 119.632 28C118.85 28 118.215 28.5938 118.215 29.3292C118.215 30.0579 118.85 30.6516 119.632 30.6516Z" fill="white"/>
<path d="M125.611 36.4137C125.611 34.9158 126.515 34.0522 127.804 34.0522C129.065 34.0522 129.821 34.8821 129.821 36.2653V42.4862H132.264V35.8874C132.27 33.4045 130.853 31.9876 128.715 31.9876C127.163 31.9876 126.097 32.7298 125.624 33.8835H125.503V32.1225H123.168V42.4862H125.611V36.4137Z" fill="white"/>
<path d="M139.064 46.5884C141.864 46.5884 143.928 45.3065 143.928 42.6548V32.1225H141.52V33.8363H141.385C141.014 33.0874 140.238 31.9876 138.409 31.9876C136.014 31.9876 134.131 33.8633 134.131 37.2706C134.131 40.6509 136.014 42.3377 138.402 42.3377C140.177 42.3377 141.007 41.3864 141.385 40.6239H141.506V42.5874C141.506 44.1122 140.494 44.7397 139.104 44.7397C137.633 44.7397 136.986 44.0447 136.689 43.4375L134.489 43.9705C134.934 45.4212 136.426 46.5884 139.064 46.5884ZM139.084 40.4215C137.471 40.4215 136.621 39.1665 136.621 37.2571C136.621 35.3746 137.458 33.9915 139.084 33.9915C140.656 33.9915 141.52 35.2937 141.52 37.2571C141.52 39.234 140.643 40.4215 139.084 40.4215Z" fill="white"/>
<path d="M158.382 32.4666H160.791C160.744 30.1321 158.753 28.479 155.811 28.479C152.91 28.479 150.731 30.1119 150.737 32.5543C150.737 34.538 152.148 35.6783 154.421 36.2653L155.994 36.6701C157.485 37.0479 158.47 37.5135 158.476 38.5863C158.47 39.767 157.35 40.5565 155.717 40.5565C154.152 40.5565 152.937 39.8548 152.836 38.4041H150.373C150.474 41.1502 152.519 42.6953 155.737 42.6953C159.05 42.6953 160.973 41.0423 160.98 38.6065C160.973 36.2113 158.996 35.1183 156.918 34.6257L155.622 34.3018C154.489 34.032 153.261 33.5529 153.274 32.3991C153.281 31.3601 154.212 30.5977 155.778 30.5977C157.269 30.5977 158.254 31.2926 158.382 32.4666Z" fill="white"/>
<path d="M167.434 42.6886C170.47 42.6886 172.4 40.5497 172.4 37.3448C172.4 34.1332 170.47 31.9876 167.434 31.9876C164.398 31.9876 162.468 34.1332 162.468 37.3448C162.468 40.5497 164.398 42.6886 167.434 42.6886ZM167.447 40.7319C165.767 40.7319 164.944 39.234 164.944 37.3381C164.944 35.4421 165.767 33.924 167.447 33.924C169.1 33.924 169.924 35.4421 169.924 37.3381C169.924 39.234 169.1 40.7319 167.447 40.7319Z" fill="white"/>
<path d="M178.803 42.6886C181.84 42.6886 183.769 40.5497 183.769 37.3448C183.769 34.1332 181.84 31.9876 178.803 31.9876C175.767 31.9876 173.838 34.1332 173.838 37.3448C173.838 40.5497 175.767 42.6886 178.803 42.6886ZM178.817 40.7319C177.137 40.7319 176.314 39.234 176.314 37.3381C176.314 35.4421 177.137 33.924 178.817 33.924C180.47 33.924 181.293 35.4421 181.293 37.3381C181.293 39.234 180.47 40.7319 178.817 40.7319Z" fill="white"/>
<path d="M188.095 36.4137C188.095 34.9158 188.999 34.0522 190.288 34.0522C191.549 34.0522 192.305 34.8821 192.305 36.2653V42.4862H194.748V35.8874C194.754 33.4045 193.337 31.9876 191.199 31.9876C189.647 31.9876 188.581 32.7298 188.108 33.8835H187.987V32.1225H185.652V42.4862H188.095V36.4137Z" fill="white"/>
</svg>
