<svg width="35" height="35" viewBox="0 0 35 35" fill="none" xmlns="http://www.w3.org/2000/svg">
<path fill-rule="evenodd" clip-rule="evenodd" d="M1.91663 4.20955C1.91663 3.51897 2.19096 2.85667 2.67927 2.36836C3.16759 1.88005 3.82988 1.60572 4.52046 1.60572H30.4766C30.8189 1.60516 31.1578 1.67211 31.4742 1.80273C31.7905 1.93335 32.0779 2.12508 32.3201 2.36694C32.5622 2.60881 32.7542 2.89605 32.8852 3.21223C33.0162 3.52841 33.0835 3.86732 33.0833 4.20955V30.1657C33.0837 30.508 33.0165 30.847 32.8858 31.1634C32.755 31.4797 32.5631 31.7671 32.3212 32.0092C32.0792 32.2513 31.7918 32.4434 31.4756 32.5743C31.1593 32.7053 30.8203 32.7726 30.478 32.7724H4.52046C4.1784 32.7724 3.83969 32.705 3.52369 32.574C3.20768 32.4431 2.92058 32.2512 2.67877 32.0092C2.43696 31.7673 2.2452 31.4801 2.11442 31.164C1.98365 30.8479 1.91644 30.5092 1.91663 30.1671V4.20955ZM14.253 13.4887H18.4732V15.608C19.0824 14.3897 20.6407 13.2932 22.9825 13.2932C27.4719 13.2932 28.5358 15.72 28.5358 20.1725V28.4204H23.9925V21.1869C23.9925 18.651 23.3834 17.2202 21.8364 17.2202C19.6901 17.2202 18.7976 18.763 18.7976 21.1869V28.4204H14.253V13.4887ZM6.46129 28.2263H11.006V13.2932H6.46129V28.2249V28.2263ZM11.6562 8.42272C11.6648 8.81184 11.5955 9.19875 11.4525 9.56074C11.3096 9.92274 11.0957 10.2525 10.8235 10.5308C10.5514 10.809 10.2264 11.0301 9.8676 11.181C9.50884 11.3319 9.12355 11.4096 8.73434 11.4096C8.34512 11.4096 7.95983 11.3319 7.60107 11.181C7.2423 11.0301 6.9173 10.809 6.64513 10.5308C6.37296 10.2525 6.15911 9.92274 6.01612 9.56074C5.87313 9.19875 5.80389 8.81184 5.81246 8.42272C5.82928 7.65893 6.14451 6.93209 6.69063 6.39785C7.23676 5.86362 7.97036 5.56447 8.73434 5.56447C9.49831 5.56447 10.2319 5.86362 10.778 6.39785C11.3242 6.93209 11.6394 7.65893 11.6562 8.42272V8.42272Z" fill="white"/>
</svg>
