<svg width="34" height="34" viewBox="0 0 34 34" fill="none" xmlns="http://www.w3.org/2000/svg">
<path d="M33.4942 6.99415C32.3113 7.51832 31.0406 7.87249 29.7046 8.03257C31.0831 7.20777 32.1143 5.90965 32.606 4.3804C31.3109 5.14964 29.8935 5.69109 28.4155 5.98124C27.4215 4.91996 26.105 4.21653 24.6703 3.98016C23.2356 3.74378 21.7629 3.98769 20.4811 4.67401C19.1992 5.36033 18.1797 6.45066 17.581 7.77573C16.9823 9.1008 16.8378 10.5865 17.17 12.0021C14.5459 11.8703 11.9788 11.1883 9.63533 10.0002C7.29187 8.8121 5.22442 7.14455 3.56714 5.10574C3.00048 6.08324 2.67464 7.21657 2.67464 8.42357C2.67401 9.51015 2.94159 10.5801 3.45364 11.5384C3.96569 12.4968 4.70637 13.314 5.60998 13.9174C4.56203 13.8841 3.53721 13.6009 2.62081 13.0915V13.1765C2.6207 14.7005 3.14786 16.1775 4.11282 17.3571C5.07778 18.5366 6.42112 19.346 7.91489 19.6478C6.94275 19.9109 5.92354 19.9497 4.93423 19.7612C5.35568 21.0724 6.17664 22.2191 7.28216 23.0406C8.38769 23.8622 9.72244 24.3174 11.0996 24.3427C8.76182 26.1778 5.87473 27.1733 2.90273 27.1689C2.37627 27.169 1.85025 27.1383 1.32739 27.0768C4.34415 29.0165 7.85587 30.0459 11.4424 30.0419C23.5832 30.0419 30.2203 19.9864 30.2203 11.2654C30.2203 10.9821 30.2132 10.6959 30.2005 10.4126C31.4915 9.47895 32.6058 8.32284 33.4914 6.9984L33.4942 6.99415Z" fill="white"/>
</svg>
