<svg width="262" height="36" viewBox="0 0 262 36" fill="none" xmlns="http://www.w3.org/2000/svg">
<path d="M49.7381 0.792646C47.8881 0.847783 46.0466 1.0047 44.2093 1.21694C38.2237 1.92919 32.1748 1.92069 26.191 1.19145C23.7583 0.882715 21.3104 0.70862 18.8587 0.669533C8.53597 0.482784 0 0.0839844 0 0.0839844C2.13305 3.52892 2.32311 8.14495 2.3357 9.28622V12.2051C2.3357 12.2051 2.55526 23.8128 8.29948 29.5108C8.29948 29.5108 11.7672 34.7588 20.9705 35.3783C25.1098 35.3487 27.4329 34.1438 27.4329 34.1438C29.586 33.329 31.5446 32.0686 33.1812 30.4443C34.0555 29.5888 34.8255 28.6316 35.4746 27.5932C36.1224 28.6314 36.8909 29.5886 37.7639 30.4443C39.4014 32.0679 41.3596 33.3281 43.5122 34.1438C43.5122 34.1438 45.8354 35.3487 49.9746 35.3783C59.1696 34.6529 62.6456 29.5108 62.6456 29.5108C68.1154 23.3675 68.5883 12.2051 68.5883 12.2051V9.5619C69.0277 3.26154 72.0392 0.0839844 72.0392 0.0839844L49.7381 0.792646ZM26.3431 24.127C25.7882 24.6935 25.1143 25.1283 24.3706 25.3999C22.769 26.0077 21.017 26.091 19.3655 25.6374C14.8812 24.4404 11.7605 20.3618 11.7629 15.7012V12.2221H21.4773C23.3066 12.214 25.0633 12.9411 26.3557 14.2416C29.0756 16.9505 29.0943 21.3612 26.3974 24.0934C26.3835 24.1073 26.3696 24.1213 26.3557 24.1353L26.3431 24.127ZM59.1442 15.6925C59.1467 20.3531 56.0258 24.4317 51.5416 25.6287C49.89 26.0819 48.1382 25.9988 46.5365 25.3912C45.7929 25.1196 45.1189 24.685 44.564 24.1183C41.8441 21.4094 41.8255 16.9986 44.5223 14.2665C44.5362 14.2525 44.5501 14.2386 44.564 14.2246C45.8564 12.9241 47.6131 12.197 49.4424 12.2051H59.1568L59.1442 15.6925Z" fill="#888888"/>
<path d="M86.0468 28.6053L105.13 9.01627H86.6358V2.12549H116.286V7.98049L97.1201 27.5773H116.855V34.4603H86.0468V28.6053Z" fill="#888888"/>
<path d="M119.615 18.2668C119.615 9.70382 125.517 1.48462 135.903 1.48462C146.288 1.48462 152.195 9.70382 152.195 18.2668C152.195 26.8297 146.288 35.0884 135.903 35.0884C125.517 35.0884 119.615 26.8338 119.615 18.2668ZM144.47 18.2668C144.47 13.4438 141.465 8.67183 135.903 8.67183C130.34 8.67183 127.391 13.4435 127.391 18.2668C127.391 23.0898 130.392 27.8182 135.903 27.8182C141.414 27.8182 144.47 23.1414 144.47 18.2668Z" fill="#888888"/>
<path d="M156.872 34.46V2.12549H179.169C185.664 2.12549 188.862 6.86958 188.862 12.0682C188.862 16.4486 186.403 20.485 181.529 21.4694C181.693 21.6877 181.841 21.9176 181.972 22.1574L189.357 34.4603H180.94L173.358 21.7145H164.352V34.4603H156.872V34.46ZM164.351 14.8237H179.169C180.596 14.8237 181.383 13.7879 181.383 12.3609V11.4753C181.383 10.0007 180.592 9.01627 179.169 9.01627H164.351V14.8237Z" fill="#888888"/>
<path d="M194.274 34.46V2.12549H216.572C223.067 2.12549 226.269 6.86958 226.269 12.0682C226.269 16.4486 223.806 20.485 218.936 21.4694C219.101 21.6874 219.251 21.9173 219.383 22.1574L226.763 34.4603H218.343L210.764 21.7145H201.758V34.4603H194.274V34.46ZM201.758 14.8237H216.572C217.999 14.8237 218.786 13.7879 218.786 12.3609V11.4753C218.786 10.0007 217.995 9.01627 216.572 9.01627H201.758V14.8237Z" fill="#888888"/>
<path d="M229.416 18.2668C229.416 9.70382 235.323 1.48462 245.708 1.48462C256.094 1.48462 262 9.70382 262 18.2668C262 26.8297 256.094 35.0884 245.708 35.0884C235.322 35.0884 229.416 26.8338 229.416 18.2668ZM254.271 18.2668C254.271 13.4438 251.271 8.67183 245.708 8.67183C240.146 8.67183 237.193 13.4435 237.193 18.2668C237.193 23.0898 240.197 27.8182 245.708 27.8182C251.219 27.8182 254.271 23.1414 254.271 18.2668Z" fill="#888888"/>
</svg>
