<svg width="86" height="42" viewBox="0 0 86 42" fill="none" xmlns="http://www.w3.org/2000/svg">
<path d="M58.7231 0.833928C56.5389 0.898812 54.3648 1.08347 52.1955 1.33322C45.1287 2.17137 37.987 2.16137 30.9224 1.30322C28.0502 0.93992 25.1601 0.735049 22.2655 0.689053C10.078 0.469294 0 0 0 0C2.51838 4.05388 2.74277 9.48588 2.75764 10.8289V14.2637C2.75764 14.2637 3.01686 27.9232 9.79876 34.6284C9.79876 34.6284 13.8929 40.8042 24.7588 41.5332C29.6457 41.4983 32.3885 40.0804 32.3885 40.0804C34.9306 39.1216 37.2431 37.6384 39.1753 35.727C40.2075 34.7202 41.1166 33.5939 41.883 32.372C42.6478 33.5936 43.5551 34.72 44.5858 35.727C46.5191 37.6375 48.8311 39.1205 51.3726 40.0804C51.3726 40.0804 54.1153 41.4983 59.0023 41.5332C69.8584 40.6795 73.9623 34.6284 73.9623 34.6284C80.4202 27.3993 80.9786 14.2637 80.9786 14.2637V11.1533C81.4973 3.73924 85.0528 0 85.0528 0L58.7231 0.833928ZM31.1019 28.293C30.4467 28.9596 29.6511 29.4713 28.7731 29.7908C26.8821 30.5061 24.8136 30.6041 22.8638 30.0704C17.5694 28.6618 13.8849 23.8622 13.8878 18.3778V14.2837H25.3571C27.5169 14.2741 29.5909 15.1299 31.1168 16.6602C34.3281 19.8479 34.35 25.0384 31.166 28.2534C31.1496 28.2699 31.1332 28.2863 31.1168 28.3028L31.1019 28.293ZM69.8284 18.3676C69.8313 23.852 66.1466 28.6516 60.8524 30.0602C58.9024 30.5935 56.8341 30.4957 54.9432 29.7806C54.0652 29.4611 53.2695 28.9496 52.6143 28.2828C49.4031 25.095 49.3811 19.9046 52.5651 16.6895C52.5815 16.6731 52.5979 16.6566 52.6143 16.6402C54.1402 15.1099 56.2142 14.2541 58.374 14.2637H69.8433L69.8284 18.3676Z" fill="white"/>
</svg>
